<svg id="visual" viewBox="0 0 600 900" width="600" height="900" xmlns="http://www.w3.org/2000/svg" xmlns:xlink="http://www.w3.org/1999/xlink" version="1.1"><g><g transform="translate(124 898)"><path d="M87.1 -70C108.5 -42.7 118.5 -6.7 112.3 27.8C106.2 62.3 84 95.3 54.4 107.4C24.8 119.6 -12.2 110.8 -42.9 94.1C-73.5 77.4 -97.9 52.6 -108 21.1C-118 -10.5 -113.7 -48.9 -93.4 -76C-73 -103.2 -36.5 -119 -1.8 -117.6C32.9 -116.2 65.7 -97.4 87.1 -70Z" fill="none" stroke="#dff8a7" stroke-width="2"></path></g><g transform="translate(154 128)"><path d="M31.3 -22.7C40 -13.9 46.3 -1 44.3 11.2C42.4 23.3 32.3 34.7 19.7 40.6C7.1 46.6 -7.9 47.1 -19.5 41.3C-31 35.4 -39.1 23.1 -41.2 10.4C-43.3 -2.3 -39.4 -15.3 -31.6 -23.9C-23.7 -32.5 -11.9 -36.6 -0.3 -36.4C11.2 -36.2 22.5 -31.5 31.3 -22.7Z" fill="none" stroke="#dff8a7" stroke-width="2"></path></g><g transform="translate(478 144)"><path d="M64.3 -53.3C78.9 -32.9 83.2 -6.5 78.2 18.7C73.1 43.8 58.5 67.6 36.8 79.1C15.1 90.6 -13.9 89.8 -38.2 78.4C-62.5 67 -82.2 45.1 -86.1 21.5C-89.9 -2.1 -78 -27.4 -61 -48.3C-44.1 -69.2 -22 -85.8 1.4 -86.9C24.8 -88 49.7 -73.7 64.3 -53.3Z" fill="none" stroke="#dff8a7" stroke-width="2"></path></g><g transform="translate(489 656)"><path d="M64.1 -54.1C77.8 -33.9 80.1 -7.5 74.5 17C68.9 41.6 55.4 64.3 34.6 75.9C13.7 87.5 -14.4 88 -36.7 77C-59 66 -75.4 43.5 -81.8 18C-88.2 -7.5 -84.5 -36 -69.2 -56.6C-53.9 -77.3 -27 -90 -0.9 -89.2C25.2 -88.5 50.3 -74.4 64.1 -54.1Z" stroke="#dff8a7" fill="none" stroke-width="2"></path></g><g transform="translate(25 511)"><path d="M34.1 -27.4C42.3 -16.8 45.9 -2.8 43.7 11.2C41.5 25.2 33.5 39.1 21.1 45.8C8.8 52.5 -8 52 -20.2 45C-32.4 37.9 -40 24.4 -42.4 10.6C-44.9 -3.3 -42.2 -17.4 -34.3 -27.9C-26.3 -38.5 -13.2 -45.4 -0.1 -45.3C12.9 -45.2 25.8 -38 34.1 -27.4Z" stroke="#dff8a7" fill="none" stroke-width="2"></path></g><g transform="translate(319 409)"><path d="M55.5 -43.1C68.5 -27.9 73.2 -5.1 68.5 15.7C63.9 36.6 49.8 55.3 30.1 66.2C10.5 77 -14.7 80 -33.2 70.5C-51.7 61 -63.4 39.1 -68.7 15.7C-74 -7.6 -72.9 -32.4 -60.3 -47.5C-47.8 -62.5 -23.9 -67.9 -1.3 -66.8C21.2 -65.8 42.5 -58.3 55.5 -43.1Z" stroke="#dff8a7" fill="none" stroke-width="2"></path></g></g></svg>