<svg id="visual" viewBox="0 0 900 600" width="900" height="600" xmlns="http://www.w3.org/2000/svg" xmlns:xlink="http://www.w3.org/1999/xlink" version="1.1"><g><g transform="translate(898 323)"><path d="M84.5 -46.5C103.7 -15.4 109.6 25.6 93.3 54.6C77 83.5 38.5 100.3 5.2 97.3C-28 94.2 -56 71.4 -70.3 43.6C-84.7 15.8 -85.3 -16.9 -71.3 -44.9C-57.3 -73 -28.6 -96.4 2 -97.5C32.6 -98.7 65.2 -77.6 84.5 -46.5Z" stroke="#dff8a7" fill="none" stroke-width="2"></path></g><g transform="translate(355 362)"><path d="M68.9 -43.5C83.4 -14.8 85 17.6 71.4 45.7C57.7 73.8 28.9 97.5 -3.1 99.3C-35.1 101.1 -70.2 81 -83.2 53.3C-96.2 25.5 -87 -9.7 -69.5 -40.2C-51.9 -70.6 -26 -96.3 0.7 -96.6C27.3 -97 54.5 -72.1 68.9 -43.5Z" stroke="#dff8a7" fill="none" stroke-width="2"></path></g><g transform="translate(279 7)"><path d="M45 -24.9C55 -8.5 57.8 13.2 49 32.2C40.3 51.1 20.2 67.3 2.1 66.1C-16 64.9 -31.9 46.3 -41.7 26.7C-51.4 7.2 -54.9 -13.2 -46.9 -28.4C-38.9 -43.6 -19.5 -53.5 -1 -52.9C17.4 -52.3 34.9 -41.3 45 -24.9Z" stroke="#dff8a7" fill="none" stroke-width="2"></path></g><g transform="translate(640 530)"><path d="M25.2 -16.8C29.5 -7.3 27.3 3.6 22.1 11.5C16.8 19.4 8.4 24.3 -0.1 24.4C-8.7 24.5 -17.3 19.7 -23.2 11.5C-29 3.3 -32.1 -8.5 -27.7 -18.1C-23.4 -27.8 -11.7 -35.3 -0.6 -34.9C10.5 -34.6 21 -26.4 25.2 -16.8Z" stroke="#dff8a7" fill="none" stroke-width="2"></path></g><g transform="translate(34 336)"><path d="M61.9 -35.3C77.7 -8.2 86.5 23.4 75 44.8C63.5 66.2 31.7 77.4 2.2 76.1C-27.3 74.8 -54.6 61 -65.7 39.9C-76.8 18.7 -71.7 -9.9 -58.1 -35.7C-44.5 -61.5 -22.2 -84.6 0.4 -84.8C23 -85 46 -62.4 61.9 -35.3Z" stroke="#dff8a7" fill="none" stroke-width="2"></path></g><g transform="translate(781 37)"><path d="M63.2 -37.7C72.9 -19.7 65.5 6.9 52.2 25.5C38.8 44.1 19.4 54.7 0.5 54.4C-18.4 54.1 -36.7 43 -46 26.7C-55.2 10.5 -55.3 -10.7 -46.1 -28.4C-37 -46.1 -18.5 -60.1 4.1 -62.5C26.8 -64.9 53.5 -55.6 63.2 -37.7Z" stroke="#dff8a7" fill="none" stroke-width="2"></path></g></g></svg>
